<svg xmlns="http://www.w3.org/2000/svg" viewBox="0 0 923.47 212.04"><defs><style>.cls-1,.cls-3{fill:#0055a9;}.cls-2{fill:#66aef6;}.cls-3{font-size:171.47px;font-family:Montserrat-Medium, Montserrat Medium;font-weight:500;}.cls-4{letter-spacing:-0.01em;}.cls-5{letter-spacing:-0.01em;}.cls-6{letter-spacing:-0.01em;}</style></defs><g id="Layer_2" data-name="Layer 2"><g id="Layer_2-2" data-name="Layer 2"><path class="cls-1" d="M141,93.76l-10.13-18s-3.06-6.36-6.59-9.29a21.22,21.22,0,0,0-10-4.74,14,14,0,0,0-2.24-.13l-27.9-.07a9.28,9.28,0,0,1-3.37-.63,12.21,12.21,0,0,1-5-3.7,12.73,12.73,0,0,1-2.44-9.74c.59-4.14,3-6.74,4.94-8.8l.18-.19a15.19,15.19,0,0,1,10.79-4.68c31.77-.43,55-.37,62.24-.07a16.12,16.12,0,0,1,7.72,2.1c3.23,1.9,4.8,4.54,7.3,9.06,5.88,10.62,6.24,12.33,8.53,15.84,3.16,4.86,5.89,8.84,11.1,11.64A36,36,0,0,0,198.8,76a42,42,0,0,0,4.67.21c5.57,0,9.52-.08,12.36-.12s4.85-.07,6.22-.07L183.6,9.39A18.76,18.76,0,0,0,167.35,0H66.06A18.75,18.75,0,0,0,49.81,9.39L0,95.65H142.12Z"/><path class="cls-2" d="M203.47,135.87a41.48,41.48,0,0,0-4.67.2,35.88,35.88,0,0,0-12.72,3.59c-5.21,2.8-7.94,6.78-11.1,11.64-2.29,3.5-2.65,5.21-8.53,15.84-2.5,4.52-4.07,7.16-7.3,9.06a16.23,16.23,0,0,1-7.72,2.1c-7.24.3-30.47.36-62.24-.07a15.23,15.23,0,0,1-10.79-4.68l-.18-.19c-1.92-2.06-4.35-4.67-4.94-8.8a12.76,12.76,0,0,1,2.44-9.75,12.17,12.17,0,0,1,5-3.69,9.29,9.29,0,0,1,3.37-.64l27.9-.06a14,14,0,0,0,2.24-.14,21.09,21.09,0,0,0,10-4.73c3.53-2.94,6.59-9.3,6.59-9.3l10.13-18,1.17-1.9H0l49.81,86.27A18.75,18.75,0,0,0,66.06,212H167.35a18.76,18.76,0,0,0,16.25-9.39l38.45-66.59c-1.37,0-3.37,0-6.22-.07S209,135.9,203.47,135.87Z"/><text class="cls-3" transform="translate(248.58 156.34)">Eli<tspan class="cls-4" x="164.95" y="0">t</tspan><tspan x="220.68" y="0">e </tspan><tspan class="cls-5" x="342.93" y="0">C</tspan><tspan x="441.18" y="0">a</tspan><tspan class="cls-6" x="523.83" y="0">r</tspan><tspan x="578.18" y="0">d</tspan></text></g></g></svg>